<svg xmlns="http://www.w3.org/2000/svg" width="178" height="47" viewBox="0 0 178 47"><g><g><path fill="#1f7dbc" d="M55.115 42.229H.327v3.986h54.788z"/></g><g><path fill="#6db12d" d="M116.694 42.229H61.906v3.986h54.788z"/></g><g><path fill="#e3051f" d="M177.571 42.229h-54.788v3.986h54.788z"/></g><g><path fill="#fff" d="M.313 11.443C.313 2.88 7.137.862 18.605.862H33.57c18.12 0 20.47 2.745 20.355 11.027h-12.73v-.81c0-2.1-2.177-2.705-5.962-2.705H21.358c-6.71 0-7.971 2.22-7.971 5.855v7.548c0 4.239 1.262 5.854 7.282 5.854h13.589c5.734 0 7.453-.403 7.453-4.037h12.732v2.746c0 4.927-2.526 8.803-15.31 8.803H18.605C7.137 35.143.313 33.125.313 24.563z"/></g><g><path fill="#fff" d="M61.699.862h39.292c12.097 0 15.024 4.259 15.024 9.967v2.488c0 4.342-2.695 9.325-11.698 9.325h-29.89v12.416H61.7zm12.729 14.547h24.384c2.98 0 4.129-1.367 4.129-3.094v-1.126c0-1.968-1.376-3.094-5.218-3.094H74.428z"/></g><g><path fill="#fff" d="M123.034.862h19.552l7.768 19.811L158.11.862h19.55v34.197h-12.385V9.058h-.11l-10.049 26.001h-9.52l-10.06-26.001h-.116v26.001h-12.385z"/></g></g></svg>